<svg width="165" height="164" viewBox="0 0 165 164" fill="none" xmlns="http://www.w3.org/2000/svg">
<path d="M82.2437 163.297C36.9494 163.297 0 126.943 0 81.6486C0 76.8807 4.17184 72.7089 8.93966 72.7089C13.7075 72.7089 17.8793 76.8807 17.8793 81.6486C17.8793 116.811 46.485 145.418 82.2437 145.418C118.002 145.418 146.611 116.811 146.611 81.6486C146.611 46.4859 118.002 17.8793 82.2437 17.8793C77.4758 17.8793 73.304 13.7075 73.304 8.93965C73.304 4.17184 77.4758 0 82.2437 0C127.538 0 164.49 36.3543 164.49 81.6486C164.49 126.943 127.538 163.297 82.2437 163.297Z" fill="url(#paint0_linear_576_2167)"/>
<path d="M82.2435 120.386C103.699 120.386 120.388 103.103 120.388 82.244C120.388 60.7888 103.103 44.1006 82.2435 44.1006C60.7883 44.1006 44.1016 61.3848 44.1016 82.244C44.1016 103.103 61.3843 120.386 82.2435 120.386Z" fill="url(#paint1_linear_576_2167)"/>
<defs>
<linearGradient id="paint0_linear_576_2167" x1="158.646" y1="36.8654" x2="-3.98904" y2="52.6739" gradientUnits="userSpaceOnUse">
<stop stop-color="#E6F6FD"/>
<stop offset="1" stop-color="#EDF3FF"/>
</linearGradient>
<linearGradient id="paint1_linear_576_2167" x1="117.678" y1="61.3225" x2="42.2414" y2="68.6021" gradientUnits="userSpaceOnUse">
<stop stop-color="#E6F6FD"/>
<stop offset="1" stop-color="#EDF3FF"/>
</linearGradient>
</defs>
</svg>
