<?xml version="1.0" standalone="no"?>
<!DOCTYPE svg PUBLIC "-//W3C//DTD SVG 20010904//EN"
 "http://www.w3.org/TR/2001/REC-SVG-20010904/DTD/svg10.dtd">
<svg version="1.0" xmlns="http://www.w3.org/2000/svg"
 width="333.000000pt" height="333.000000pt" viewBox="0 0 333.000000 333.000000"
 preserveAspectRatio="xMidYMid meet">
<metadata>
Created by potrace 1.14, written by Peter Selinger 2001-2017
</metadata>
<g transform="translate(0.000000,333.000000) scale(0.100000,-0.100000)"
fill="#000000" stroke="none">
<path d="M1535 3287 c-10 -13 -28 -43 -62 -107 -10 -19 -24 -40 -30 -48 -7 -7
-13 -17 -13 -22 0 -4 -18 -38 -40 -74 -22 -36 -40 -70 -40 -76 0 -5 -4 -10
-10 -10 -5 0 -10 -6 -10 -14 0 -7 -7 -19 -15 -26 -13 -11 -19 -9 -34 9 -10 11
-24 21 -30 21 -7 0 -9 5 -6 10 3 6 -3 10 -14 10 -12 0 -21 4 -21 8 0 9 -62 30
-110 38 -14 3 -30 6 -37 9 -6 2 -13 -1 -15 -7 -2 -6 -11 -3 -22 7 -14 14 -15
20 -4 26 7 5 9 9 5 9 -4 0 -3 9 3 21 18 32 5 33 -23 3 l-26 -28 -49 50 c-28
28 -56 51 -63 52 -8 0 -30 3 -49 5 -19 2 -43 0 -52 -5 -13 -6 -18 -5 -18 4 0
10 -2 10 -9 0 -4 -7 -15 -14 -23 -16 -9 -1 -23 -8 -32 -15 -9 -7 -16 -11 -16
-7 0 13 -89 -83 -104 -112 -26 -50 -16 -70 18 -36 9 8 20 13 25 9 5 -3 13 0
16 6 4 5 13 8 21 5 8 -3 14 -1 14 4 0 5 7 7 15 4 8 -4 15 -2 15 2 0 5 17 10
38 11 73 3 170 15 192 23 3 1 8 2 13 1 4 0 7 3 7 8 0 4 11 6 24 4 32 -6 23
-41 -13 -49 -14 -4 -36 -13 -48 -20 -13 -8 -23 -12 -23 -9 0 3 -20 -15 -44
-40 -65 -69 -97 -133 -103 -214 -9 -118 -32 -111 318 -108 320 2 317 2 320 52
3 49 1 102 -5 132 -3 18 -2 35 4 38 6 4 8 10 5 14 -2 5 4 16 14 25 17 16 19
15 29 -11 27 -71 33 -109 30 -176 l-3 -72 253 0 c141 0 252 4 251 9 0 5 5 13
13 17 8 5 9 9 2 9 -17 0 -32 49 -38 128 -2 23 0 42 5 42 5 0 9 6 9 14 0 17 39
48 51 40 12 -7 21 -62 13 -76 -12 -18 -13 -58 -2 -64 4 -3 6 -10 3 -15 -4 -5
-1 -9 4 -9 6 0 11 -7 11 -15 0 -9 15 -30 34 -49 l35 -33 380 0 c324 -1 382 1
392 14 19 23 14 121 -10 195 -21 64 -22 80 -5 156 6 28 2 38 -21 62 -15 16
-36 28 -47 27 -21 -1 -48 -28 -52 -50 -6 -43 -79 -116 -151 -152 -64 -31 -110
-42 -160 -38 -46 4 -150 50 -182 81 -31 31 -85 62 -106 62 -19 0 -37 -34 -31
-62 1 -10 -1 -18 -5 -18 -11 0 -32 26 -26 32 3 2 -3 13 -14 24 -14 15 -16 25
-8 47 12 35 7 40 -44 46 -3 1 -17 21 -30 46 -13 25 -27 45 -31 45 -5 0 -8 9
-8 19 0 11 -5 23 -10 26 -6 4 -8 10 -5 14 2 5 -6 18 -20 31 -13 12 -29 35 -35
50 -15 37 -33 43 -69 23 l-29 -17 17 -36 c9 -19 19 -36 24 -38 11 -6 8 -47 -5
-60 -9 -9 -20 -2 -50 30 -21 23 -38 38 -38 33 0 -4 -8 -1 -17 8 -10 8 -21 16
-25 16 -5 1 -9 1 -10 2 -22 6 -35 4 -35 -7 0 -7 6 -15 12 -18 10 -4 27 -73 29
-124 2 -18 55 -72 72 -72 16 0 19 -16 4 -25 -5 -3 -10 -2 -10 3 0 4 -20 18
-45 31 -46 23 -127 31 -178 17 l-28 -8 37 63 c20 35 43 71 50 79 7 8 13 20 13
25 1 6 8 18 16 28 22 25 18 52 -10 71 -29 19 -37 19 -50 3z m334 -212 c23 -39
17 -52 -38 -75 -17 -7 -31 -16 -31 -21 0 -5 -4 -9 -10 -9 -13 0 -13 15 1 63 9
33 40 77 53 77 2 0 13 -16 25 -35z"/>
<path d="M355 2514 c-18 -19 -20 -32 -17 -91 2 -37 9 -74 16 -81 20 -20 2638
-20 2667 0 17 11 21 24 20 68 0 30 -2 64 -5 75 -2 11 -5 23 -5 26 -3 23 -55
26 -332 18 -26 -1 -51 1 -57 5 -6 3 -13 2 -17 -3 -3 -6 -15 -7 -28 -2 -14 5
-30 5 -40 0 -11 -7 -17 -6 -17 0 0 6 -11 6 -30 1 -16 -5 -30 -6 -30 -2 0 4
-24 6 -52 4 -101 -6 -266 -4 -277 2 -6 4 -11 4 -11 -1 0 -4 -11 -8 -25 -8 -14
0 -25 3 -25 7 0 4 -11 3 -25 -2 -14 -5 -25 -6 -25 -2 0 7 -111 6 -157 -2 -13
-2 -23 0 -23 5 0 4 -14 4 -30 -1 -17 -5 -30 -5 -30 0 0 5 -13 5 -30 0 -17 -5
-32 -5 -35 0 -3 5 -16 6 -28 1 -12 -4 -33 -5 -47 -1 -13 3 -46 3 -73 0 -26 -4
-50 -4 -52 0 -4 6 -92 3 -112 -4 -7 -3 -15 -1 -18 4 -3 6 -15 6 -30 0 -14 -5
-25 -6 -25 -2 0 4 -21 6 -47 5 -67 -3 -96 -3 -113 -3 -8 1 -44 0 -80 -1 -36 0
-69 0 -75 1 -5 1 -14 1 -20 0 -11 -2 -52 -2 -181 1 -45 1 -86 -1 -91 -4 -5 -3
-14 -3 -20 1 -14 9 -266 7 -280 -1 -6 -4 -13 -3 -17 0 -15 15 -51 9 -71 -13z"/>
<path d="M458 2243 c-7 -9 -7 -17 1 -27 9 -10 9 -16 1 -21 -8 -5 -8 -11 1 -21
6 -8 9 -14 7 -14 -3 0 -1 -19 3 -42 13 -61 23 -129 23 -155 1 -13 3 -23 6 -23
3 0 7 -15 8 -33 1 -18 5 -44 8 -57 3 -14 7 -41 10 -60 4 -35 11 -75 14 -75 1
0 3 -16 5 -35 2 -19 7 -53 10 -75 4 -22 8 -51 9 -65 1 -14 6 -31 10 -38 4 -8
6 -15 3 -18 -2 -3 1 -31 8 -62 6 -32 11 -68 10 -80 -1 -12 2 -22 6 -22 4 0 6
-11 4 -25 -1 -14 1 -28 6 -31 5 -3 7 -18 5 -34 -2 -22 1 -30 13 -31 9 -1 180
-2 381 -3 201 -1 371 -5 379 -10 9 -6 12 -5 8 0 -3 6 256 9 673 9 373 0 681 3
685 7 3 3 9 21 11 40 3 18 8 44 11 58 3 14 5 40 6 58 1 17 4 32 7 32 4 0 6 10
5 23 -1 12 0 27 4 32 3 6 6 19 7 30 1 19 5 44 20 130 4 22 8 55 8 72 1 18 4
33 7 33 3 0 6 6 6 13 0 16 13 107 18 132 9 39 16 80 20 110 3 31 13 92 20 135
6 31 16 108 18 135 2 20 -4 20 -1226 20 -979 0 -1231 -2 -1239 -12z m817 -161
c-1 -9 1 -27 6 -38 4 -12 5 -25 1 -29 -11 -11 -9 -109 3 -117 6 -5 6 -8 0 -8
-9 0 -13 -322 -5 -340 1 -3 1 -9 0 -15 -7 -32 -6 -55 2 -55 5 0 6 -6 1 -12 -4
-7 -8 -17 -9 -23 0 -5 -2 -15 -2 -21 -1 -6 -17 -11 -34 -10 l-33 1 -3 65 c-1
36 -2 71 -2 78 0 29 0 39 -1 72 0 19 0 40 1 45 4 26 1 125 -5 135 -3 5 -1 10
5 10 6 0 9 4 5 10 -3 5 -6 29 -5 52 1 83 0 133 -2 169 -3 47 18 69 53 57 17
-6 26 -16 24 -26z m872 25 c8 3 19 0 23 -7 5 -8 9 -163 9 -347 0 -256 -2 -333
-12 -335 -36 -4 -43 -4 -52 3 -13 10 -13 654 0 683 5 11 10 15 12 9 3 -7 11
-9 20 -6z m-1176 -7 c1 -3 2 -155 3 -338 1 -295 0 -335 -15 -342 -20 -11 -55
-5 -51 9 1 6 -1 11 -5 11 -9 0 -7 204 1 226 3 7 0 14 -5 16 -7 2 -7 12 0 30 7
18 7 28 0 30 -7 2 -7 12 0 31 7 19 7 27 0 27 -7 0 -8 7 -4 18 8 21 12 162 4
162 -7 0 -1 108 7 121 6 10 63 9 65 -1z m602 -12 c3 -13 4 -130 4 -261 -1
-130 2 -237 6 -237 5 0 5 -5 1 -11 -4 -6 -6 -45 -5 -85 1 -54 -2 -74 -11 -75
-7 -1 -24 -2 -38 -3 l-25 -1 -2 325 c-1 179 0 335 3 348 3 17 11 22 33 22 22
0 30 -6 34 -22z m301 2 c8 -26 6 -670 -2 -671 -4 0 -19 -2 -34 -4 -22 -3 -29
1 -32 18 -6 29 -5 660 1 670 8 13 63 3 67 -13z m602 -6 c4 -14 4 -28 1 -31 -4
-3 -2 -14 3 -24 7 -11 7 -20 0 -24 -6 -4 -6 -15 0 -30 5 -14 6 -25 2 -25 -4 0
-6 -28 -5 -62 2 -35 2 -88 2 -118 0 -30 0 -71 0 -90 2 -87 1 -103 -3 -108 -3
-2 -1 -13 4 -23 7 -12 7 -20 0 -24 -6 -4 -7 -11 -3 -18 9 -15 10 -57 1 -57 -4
0 -5 -9 -3 -20 3 -18 0 -19 -28 -15 -39 7 -60 24 -49 39 5 6 8 155 8 331 l-1
320 32 2 c27 2 34 -2 39 -23z"/>
<path d="M97 1088 c-6 -4 -14 -5 -17 -3 -4 2 -6 -71 -6 -163 l1 -167 38 -3
c36 -3 37 -2 37 30 1 18 2 80 3 137 l2 105 58 1 c32 0 61 -2 66 -5 4 -3 7 -63
7 -135 l-1 -130 40 0 40 0 1 163 c1 158 0 164 -20 171 -26 9 -159 6 -175 -3
-6 -4 -11 -4 -11 1 0 10 -48 11 -63 1z"/>
<path d="M430 819 l0 -180 38 3 c35 3 37 5 37 38 -1 19 4 38 10 42 7 5 6 8 -2
8 -6 0 -9 9 -6 20 4 15 9 17 23 10 37 -20 80 -11 114 23 31 30 33 36 32 99 -1
60 -4 69 -30 93 -25 23 -36 27 -74 22 -24 -3 -48 -10 -52 -17 -5 -8 -9 -7 -13
4 -4 10 -19 16 -42 16 l-35 0 0 -181z m160 106 c7 -8 9 -15 4 -15 -4 0 -3 -5
2 -10 16 -16 5 -65 -17 -78 -11 -7 -30 -10 -43 -6 -19 4 -23 12 -25 51 0 25 4
52 10 59 15 18 53 18 69 -1z"/>
<path d="M773 984 c-18 -9 -33 -22 -33 -29 0 -8 -5 -15 -11 -17 -6 -2 -12 -23
-15 -47 -10 -103 82 -169 182 -131 33 13 77 58 69 71 -4 5 -3 9 2 9 13 0 8 64
-8 98 -25 57 -117 80 -186 46z m104 -52 c18 -12 22 -79 6 -102 -33 -47 -98 -8
-90 53 2 19 8 40 11 46 8 13 55 15 73 3z"/>
<path d="M1067 980 c-16 -10 -34 -26 -41 -36 -18 -27 -20 -102 -4 -121 7 -9
11 -19 9 -22 -10 -13 64 -51 98 -51 63 0 82 10 79 38 -3 23 -38 43 -38 22 0
-5 -10 -5 -22 -2 -55 17 -69 40 -55 94 8 31 37 42 84 35 24 -4 29 -1 30 16 1
12 -3 27 -9 34 -15 19 -96 14 -131 -7z"/>
<path d="M1228 969 c3 -17 9 -28 16 -26 6 2 20 1 31 -3 19 -7 20 -15 18 -97
l-2 -89 39 -2 40 -3 0 96 c0 83 2 95 18 96 9 1 24 2 32 3 8 0 14 11 14 26 0
25 0 25 -105 27 l-105 2 4 -30z"/>
<path d="M1470 820 l0 -180 39 0 40 0 -2 65 c-2 55 0 64 13 58 25 -11 81 -11
106 1 20 9 52 59 43 68 -1 2 3 13 10 26 7 14 8 22 1 22 -5 0 -10 5 -10 11 0 5
4 8 9 5 16 -10 -12 63 -30 80 -26 24 -85 29 -114 10 -23 -15 -29 -13 -26 7 0
4 -17 7 -39 7 l-40 0 0 -180z m152 108 c34 -33 25 -102 -15 -117 -53 -21 -83
84 -35 121 28 22 23 22 50 -4z"/>
<path d="M1784 983 c-14 -15 -19 -45 -8 -56 4 -3 16 0 28 8 24 17 66 20 66 4
0 -5 5 -7 10 -4 6 3 10 -1 10 -9 0 -10 -10 -17 -27 -18 -42 -2 -46 -3 -73 -17
-31 -17 -40 -30 -40 -59 0 -15 -4 -21 -11 -16 -7 4 -1 -7 12 -25 28 -38 61
-48 103 -32 20 7 32 8 34 1 2 -5 20 -10 41 -10 l37 0 -2 93 c-2 114 0 102 -28
131 -21 20 -34 24 -81 24 -35 -1 -62 -6 -71 -15z m103 -143 c2 -23 -28 -43
-51 -34 -24 9 -19 43 7 53 29 11 42 5 44 -19z"/>
<path d="M2022 959 c-1 -22 -4 -45 -8 -50 -3 -5 -1 -9 5 -9 10 0 9 -25 -2 -36
-4 -4 -2 -13 4 -21 9 -9 8 -13 0 -13 -9 0 -9 -5 -1 -20 6 -12 7 -20 1 -20 -5
0 -7 -9 -4 -21 5 -16 12 -19 42 -17 l36 3 1 50 1 50 41 3 42 3 0 -55 0 -56 38
0 38 0 -2 118 c0 64 -2 120 -3 125 0 4 -16 7 -35 7 -34 0 -35 -1 -38 -42 -3
-42 -4 -43 -40 -45 -36 -2 -38 -1 -39 30 -1 18 -1 38 0 45 1 8 -12 12 -37 12
-38 0 -39 0 -40 -41z"/>
<path d="M2365 982 c-43 -27 -54 -44 -61 -89 -14 -99 70 -165 174 -137 16 5
22 14 22 36 0 24 -3 27 -17 21 -27 -12 -46 -10 -77 10 -23 15 -27 24 -24 55 3
47 38 72 85 62 39 -9 46 -4 31 24 -6 11 -9 23 -7 26 2 3 -18 6 -46 8 -35 2
-59 -3 -80 -16z"/>
<path d="M2524 973 c1 -20 7 -27 25 -30 14 -2 27 -6 30 -9 3 -3 6 -45 6 -92
l0 -87 34 -3 c19 -2 37 1 40 7 4 6 6 49 6 96 -1 67 1 85 12 81 7 -3 13 -1 13
5 0 6 6 9 13 6 6 -2 17 3 23 12 22 29 -7 40 -108 40 l-95 0 1 -26z"/>
<path d="M2763 968 c-4 -18 -6 -37 -4 -43 8 -25 8 -56 -1 -61 -4 -3 -5 -10 -2
-16 4 -5 6 -30 6 -54 l-1 -44 92 0 c101 0 133 14 142 59 4 24 -10 60 -29 74
-8 5 -7 9 2 15 24 16 24 59 0 82 -19 17 -35 20 -110 20 l-88 0 -7 -32z m134
-21 c4 -4 8 -14 9 -22 2 -16 -38 -31 -55 -20 -11 6 -15 38 -6 47 7 7 43 3 52
-5z m14 -108 c13 -22 -3 -39 -37 -39 -29 0 -34 3 -34 23 0 13 3 27 7 30 9 10
55 0 64 -14z"/>
<path d="M3095 988 c-60 -33 -83 -114 -51 -176 45 -86 190 -82 230 7 28 61 8
139 -43 166 -35 17 -107 19 -136 3z m115 -106 c0 -52 -15 -72 -51 -68 -41 5
-51 17 -51 60 0 40 18 70 38 62 7 -3 16 -1 19 4 12 19 45 -24 45 -58z"/>
<path d="M1244 452 c-7 -5 -11 -66 -10 -172 l1 -165 28 2 c15 1 27 -3 27 -8 0
-6 5 -7 10 -4 14 9 98 11 106 2 11 -10 33 19 31 42 -2 25 1 23 -59 25 -55 2
-61 7 -63 45 -1 29 0 29 49 28 46 -1 51 2 57 25 5 21 2 28 -17 37 -13 6 -26 6
-29 1 -3 -5 -18 -5 -35 2 -23 7 -29 15 -26 31 3 12 5 28 5 35 1 9 13 13 39 12
70 -3 74 -2 70 28 -2 19 -9 27 -23 27 -11 1 -25 3 -30 7 -6 3 -19 2 -30 -2
-11 -4 -30 -4 -42 1 -15 6 -23 5 -23 -2 0 -8 -4 -8 -13 -1 -7 6 -17 8 -23 4z"/>
<path d="M1535 350 c-2 -8 -7 -33 -11 -54 -8 -51 -36 -124 -49 -124 -14 -1
-22 -32 -19 -77 1 -22 3 -48 3 -57 1 -13 9 -18 31 -18 27 0 29 3 26 30 -6 50
13 64 84 62 70 -1 69 -1 75 -31 2 -11 7 -26 11 -33 4 -7 3 -8 -4 -4 -8 5 -10
2 -6 -8 4 -9 18 -16 34 -16 27 0 27 1 29 69 2 63 0 69 -20 74 -16 4 -20 11
-16 26 3 12 1 21 -4 21 -5 0 -4 10 2 22 9 16 9 23 1 26 -8 2 -9 9 -2 22 7 13
7 21 0 25 -8 5 -8 11 0 20 19 23 -16 38 -90 39 -54 1 -71 -2 -75 -14z m89
-114 c1 -31 -2 -56 -6 -56 -5 0 -7 -4 -4 -8 3 -5 -7 -8 -22 -7 -26 1 -35 17
-23 40 3 6 6 15 7 20 14 77 21 92 36 77 6 -6 11 -35 12 -66z"/>
<path d="M1802 362 c-22 -3 -23 -5 -20 -125 l3 -122 30 -6 c17 -3 39 -1 50 4
13 7 20 6 23 -1 2 -6 9 -9 15 -7 7 3 25 7 41 9 28 5 54 29 57 54 9 72 -10 94
-86 100 -58 5 -57 4 -57 64 -1 28 -16 36 -56 30z m115 -152 c16 -21 -2 -50
-33 -50 -14 0 -23 4 -20 9 4 5 2 11 -3 13 -5 1 -5 13 0 25 9 24 38 26 56 3z"/>
<path d="M2034 251 c1 -68 -3 -111 -9 -111 -5 0 -1 -7 10 -16 11 -8 28 -13 38
-10 9 2 17 -1 17 -7 0 -8 3 -8 10 -1 7 7 10 57 8 130 l-3 119 -36 3 -36 3 1
-110z"/>
</g>
</svg>
