<?xml version="1.0" standalone="no"?>
<!DOCTYPE svg PUBLIC "-//W3C//DTD SVG 20010904//EN"
 "http://www.w3.org/TR/2001/REC-SVG-20010904/DTD/svg10.dtd">
<svg version="1.0" xmlns="http://www.w3.org/2000/svg"
 width="290.000000pt" height="290.000000pt" viewBox="0 0 290.000000 290.000000"
 preserveAspectRatio="xMidYMid meet">
<metadata>
Created by potrace 1.14, written by Peter Selinger 2001-2017
</metadata>
<g transform="translate(0.000000,290.000000) scale(0.100000,-0.100000)"
fill="#000000" stroke="none">
<path d="M1458 2865 c-3 -3 -40 -7 -84 -10 -43 -3 -92 -7 -109 -10 -16 -3 -45
-7 -63 -9 -19 -2 -36 -6 -39 -9 -4 -5 -5 -111 -2 -239 0 -10 0 -43 0 -73 0
-30 0 -61 1 -68 1 -11 54 -14 283 -13 301 1 326 -2 340 -48 4 -11 8 -143 9
-293 1 -149 5 -275 9 -280 11 -10 997 -12 1003 -2 9 15 -47 168 -100 272 -113
224 -276 407 -490 550 -70 47 -92 51 -81 16 4 -10 8 -31 11 -46 10 -60 58
-191 102 -277 26 -50 49 -93 52 -96 3 -3 19 -26 35 -52 17 -27 33 -48 38 -48
4 0 7 -5 7 -12 0 -10 63 -86 152 -183 43 -47 31 -74 -22 -51 -63 26 -236 167
-222 180 3 3 -3 6 -13 6 -10 0 -16 2 -13 5 3 3 -13 24 -34 48 -60 64 -131 161
-198 267 -19 30 -38 57 -42 58 -5 2 -6 7 -4 11 6 10 -80 102 -88 94 -3 -3 -6
-1 -6 5 0 32 -153 56 -255 39 -44 -8 -43 -7 -130 -27 -75 -17 -74 -17 -77 -20
-2 -1 -34 -3 -73 -5 -72 -3 -145 17 -145 39 0 6 55 38 122 71 95 47 278 154
307 181 11 10 -14 16 -83 19 -41 2 -79 6 -84 9 -5 3 -11 3 -14 1z m468 -377
c30 -33 81 -112 89 -137 3 -12 10 -21 15 -21 7 0 33 -72 46 -125 1 -5 18 -48
38 -94 48 -110 39 -142 -22 -83 -73 71 -155 232 -222 436 -28 82 -27 92 8 68
15 -11 36 -31 48 -44z m259 -362 c22 -27 54 -62 71 -80 51 -51 95 -153 72
-167 -6 -4 -17 -2 -25 4 -33 28 -73 73 -73 83 0 6 -7 18 -16 25 -16 13 -104
189 -104 208 0 6 -4 11 -10 11 -5 0 -10 6 -10 13 1 12 24 -12 95 -97z"/>
<path d="M995 2772 c-146 -51 -355 -170 -447 -256 -21 -19 -38 -33 -38 -31 0
7 -98 -96 -137 -143 -21 -26 -41 -48 -45 -50 -5 -2 -8 -10 -8 -18 0 -8 -4 -14
-9 -14 -5 0 -11 -8 -14 -17 -3 -10 -20 -37 -38 -60 -18 -24 -29 -46 -26 -50 9
-9 168 26 186 40 8 7 15 11 15 9 1 -2 15 2 31 8 42 15 49 17 58 19 4 0 22 8
40 18 17 9 35 16 40 15 4 -1 7 2 7 6 0 5 12 14 28 21 27 13 163 99 172 110 3
3 26 23 52 44 26 21 53 43 60 50 77 72 101 88 109 76 5 -8 9 -19 9 -25 0 -20
-83 -137 -132 -187 -27 -27 -48 -53 -48 -58 0 -5 -4 -9 -9 -9 -4 0 -27 -17
-51 -37 -23 -21 -52 -47 -65 -58 -12 -11 -29 -24 -37 -30 -8 -5 -49 -33 -90
-61 -41 -28 -94 -62 -116 -74 -23 -13 -42 -28 -42 -34 0 -5 -3 -7 -6 -3 -14
13 -111 -93 -119 -130 -2 -10 -7 -29 -12 -43 -15 -40 -8 -149 17 -260 6 -25
12 -56 15 -70 2 -14 7 -36 10 -50 20 -74 1 -210 -29 -210 -10 0 -66 98 -72
125 -1 6 -19 39 -40 75 -21 36 -39 67 -39 70 -1 11 -94 148 -106 155 -9 6 -11
3 -6 -8 3 -9 3 -19 -2 -21 -9 -6 -6 -315 4 -371 4 -22 8 -47 10 -55 1 -12 30
-16 161 -20 87 -3 177 -4 200 -2 l40 3 -1 267 c-1 147 2 279 6 295 17 62 14
62 333 65 160 2 292 4 293 5 1 2 3 227 5 502 3 579 17 523 -117 477z m39 -451
c7 -11 -39 -73 -47 -64 -4 3 -7 1 -7 -5 0 -11 -113 -86 -126 -82 -4 1 -10 -2
-13 -7 -3 -5 -24 -17 -46 -27 -22 -10 -52 -24 -67 -31 -16 -8 -30 -9 -34 -4
-3 5 0 9 5 9 6 0 19 8 30 18 10 9 37 33 61 52 23 19 60 52 80 73 21 20 43 37
49 37 6 0 11 5 11 12 0 6 3 9 6 5 3 -3 20 1 37 8 37 17 54 18 61 6z m-123
-199 c-9 -17 -35 -44 -68 -72 -17 -15 -34 -25 -101 -61 -18 -9 -38 -21 -45
-26 -19 -15 -209 -86 -272 -103 -16 -4 -39 -11 -50 -16 -20 -8 -20 -8 -1 21
19 30 63 75 72 75 3 0 20 11 38 25 18 14 38 25 44 25 6 0 15 6 19 13 11 16 83
49 115 52 3 0 10 3 14 8 4 4 13 7 19 7 7 0 30 8 51 17 22 9 42 16 47 15 4 -1
7 3 7 9 0 5 4 8 8 5 5 -3 20 1 35 9 53 27 84 26 68 -3z"/>
<path d="M2473 1752 l-32 -3 3 -277 c3 -300 1 -317 -49 -340 -18 -8 -88 -12
-213 -12 -103 1 -190 0 -194 0 -25 -4 -89 -2 -94 3 -3 3 -13 3 -21 0 -8 -3
-24 -6 -36 -7 l-22 -1 0 -495 c0 -272 1 -500 3 -507 3 -9 29 -11 40 -3 1 2 5
3 10 4 4 1 13 5 20 9 6 5 12 6 12 3 0 -7 173 66 232 98 164 88 307 209 431
364 50 62 127 176 127 187 0 24 -191 -30 -312 -87 -91 -44 -219 -122 -226
-140 -2 -4 -8 -8 -14 -8 -5 0 -15 -6 -22 -13 -7 -6 -32 -28 -56 -47 -23 -19
-59 -51 -80 -70 -67 -61 -79 -70 -86 -59 -8 14 5 79 16 79 6 0 10 7 10 15 0 8
4 15 8 15 5 0 14 11 20 24 14 31 156 181 206 218 21 15 35 28 31 28 -4 0 7 10
26 23 19 13 80 55 137 95 56 39 105 71 108 71 3 -1 26 16 51 37 97 81 122 164
99 329 -5 31 -13 70 -16 70 -1 0 -3 9 -5 20 -5 31 -15 77 -24 110 -15 60 -13
150 5 189 10 20 22 35 27 33 7 -2 104 -177 146 -264 8 -18 19 -33 24 -33 4 0
5 -4 2 -10 -3 -5 -2 -10 3 -10 4 0 18 -18 31 -40 12 -22 27 -40 32 -40 6 0 7
-4 4 -10 -6 -9 6 -13 22 -7 11 3 11 268 1 289 -5 10 -4 19 2 23 6 4 7 12 3 18
-4 7 -8 17 -9 24 -1 6 -5 31 -8 54 -3 23 -9 45 -12 48 -6 6 -304 8 -361 3z
m77 -696 c0 -16 -62 -86 -77 -86 -6 0 -13 -7 -17 -15 -3 -8 -14 -15 -25 -15
-11 0 -21 -3 -23 -7 -8 -19 -91 -62 -168 -87 -47 -16 -105 -39 -130 -51 -156
-79 -109 21 55 118 29 17 140 70 180 86 11 5 34 14 50 21 37 15 103 37 130 43
11 3 21 5 23 6 1 0 2 -5 2 -13z m-337 -265 c-11 -9 -38 -29 -59 -46 -21 -16
-57 -49 -81 -72 -23 -24 -46 -43 -52 -43 -5 0 -11 -3 -13 -7 -5 -12 -76 -43
-98 -43 -27 0 -25 12 6 49 29 35 184 140 184 126 0 -4 12 2 28 13 15 10 39 22
55 26 15 3 27 11 27 17 0 6 5 7 11 3 8 -5 5 -12 -8 -23z"/>
<path d="M1047 1104 c-4 -5 -142 -9 -305 -10 -625 -5 -633 -5 -628 -23 20 -68
29 -107 28 -113 -1 -5 3 -8 8 -8 6 0 10 -6 9 -12 -2 -20 12 -58 22 -58 5 0 9
-6 9 -13 0 -18 24 -67 33 -67 4 0 7 -7 7 -16 0 -18 83 -145 143 -219 103 -127
283 -280 404 -343 20 -11 21 -10 17 21 -13 86 -61 222 -116 329 -40 79 -142
230 -159 236 -5 2 -9 8 -9 13 0 5 -15 24 -32 42 -69 72 -118 132 -115 141 13
38 125 -26 240 -136 21 -21 43 -38 49 -38 6 0 9 -2 6 -5 -3 -3 11 -23 31 -43
20 -20 56 -64 80 -97 25 -33 48 -61 53 -63 4 -2 8 -10 8 -18 0 -8 5 -14 10
-14 6 0 10 -5 10 -10 0 -6 9 -20 20 -32 11 -12 20 -28 20 -35 0 -7 5 -13 10
-13 6 0 10 -7 10 -15 0 -8 5 -15 10 -15 6 0 10 -7 10 -15 0 -8 5 -15 10 -15 6
0 10 -6 10 -14 0 -8 14 -26 31 -40 17 -14 27 -26 22 -26 -9 0 25 -21 77 -46
24 -11 61 -17 120 -17 87 0 109 3 194 28 27 8 52 12 57 10 4 -3 10 -1 14 4 6
11 110 26 157 24 30 -2 98 -31 98 -43 0 -4 -41 -28 -90 -54 -50 -26 -110 -58
-133 -72 -23 -13 -57 -32 -74 -41 -18 -9 -33 -20 -33 -25 0 -4 -9 -8 -21 -8
-11 0 -17 -4 -14 -10 3 -5 0 -10 -8 -10 -7 0 -24 -11 -37 -25 l-23 -25 49 -1
c166 -4 277 1 369 17 71 12 66 -5 63 210 -1 124 -6 194 -13 194 -5 1 -86 0
-180 -1 -410 -4 -410 -4 -433 45 -8 18 -14 211 -15 514 0 57 -2 63 -23 68 -13
3 -27 3 -33 0 -5 -3 -11 -1 -13 5 -2 5 -7 7 -11 3z m-357 -173 c14 -22 28 -41
33 -41 4 0 7 -4 7 -10 0 -5 14 -32 30 -60 17 -28 30 -57 30 -65 0 -8 5 -15 11
-15 6 0 9 -6 6 -12 -2 -7 0 -22 6 -33 9 -20 9 -20 -9 0 -11 11 -35 40 -55 65
-20 25 -58 67 -83 93 -26 26 -44 52 -41 57 3 6 2 10 -3 10 -9 0 -13 7 -31 62
-20 61 53 23 99 -51z m148 -69 c26 -26 106 -151 130 -202 62 -135 105 -250 97
-258 -2 -3 0 -11 7 -19 27 -33 -26 -20 -61 14 -21 21 -61 82 -61 93 0 6 -4 10
-10 10 -5 0 -10 7 -10 15 0 8 -4 15 -10 15 -5 0 -10 7 -10 15 0 8 -4 15 -9 15
-5 0 -12 10 -16 23 -4 12 -8 24 -9 27 -1 3 -8 23 -15 45 -8 22 -16 45 -20 50
-3 6 -6 16 -7 23 -2 8 -14 37 -27 65 -25 51 -31 70 -28 95 1 15 31 2 59 -26z"/>
</g>
</svg>
